<?xml version="1.0" encoding="utf-8"?>
<svg id="Layer_1" data-name="Layer 1" xmlns="http://www.w3.org/2000/svg" viewBox="0 0 469 106">
	<defs>
		<style>.cls-1{fill:#eee;}.cls-2{fill:#226ce0;}</style>
	</defs>
	<title>Trustgrid-Logo-Grey</title>
	<path class="cls-1" d="M.35,28.58H29.26V-.33H.35ZM7.13,6.45H22.47V21.8H7.13Z" />
	<path class="cls-1" d="M67.82-.33H38.9V28.58H67.82ZM61,21.8H45.68V6.45H61Z" />
	<path class="cls-1" d="M.35,67.13H29.26V38.22H.35ZM7.13,45H22.47V60.35H7.13Z" />
	<path class="cls-1"
		d="M106.36,38.22H77.45v12.3H67.82V41.27L85.26,23.83l-3.06-3L64.76,38.22H38.9V67.13H67.82V54.83h9.63v12.3h12.3V80.39h4.31V67.13h12.3ZM61,60.35H45.68V45H61Zm38.55,0H84.23V45H99.58Z" />
	<path class="cls-1" d="M.35,105.69H29.26V76.77H.35ZM7.13,83.55H22.47V98.9H7.13Z" />
	<path class="cls-1" d="M38.9,105.69H67.82V76.77H38.9Zm6.78-22.14H61V98.9H45.68Z" />
	<path class="cls-2"
		d="M153.94,77.54a18.64,18.64,0,0,1-10.1,3.17,11.44,11.44,0,0,1-8.3-3c-2.12-2-3.18-5.12-3.18-9.24V44.56h-6.11V38.78h6.11V27.22H140V38.78h13.2v5.78H140V67q0,3.59,1.31,5.13a4.8,4.8,0,0,0,3.91,1.55,13.59,13.59,0,0,0,6.67-2Z" />
	<path class="cls-2"
		d="M176.74,39.56A18,18,0,0,1,186,37.07V44.4q-6.58-.24-10.66,3.42a14.51,14.51,0,0,0-4.64,9.85V80.39h-7.57V37.32h7.57V46.6a15.52,15.52,0,0,1,6-7" />
	<path class="cls-2"
		d="M232.34,37.32V80.39h-7.65V71.27q-4.23,9.2-16,9.36-7.48,0-11.72-4.44t-4.24-12.25V37.32h7.66V61.9q0,5.46,3,8.51a10.87,10.87,0,0,0,8.18,3.06,12.11,12.11,0,0,0,9.57-4.28,16,16,0,0,0,3.54-10.7V37.32Z" />
	<path class="cls-2"
		d="M260.47,44.24a21.21,21.21,0,0,0-6.15-1,10.48,10.48,0,0,0-5.49,1.26,4.21,4.21,0,0,0-2.08,3.87,4.3,4.3,0,0,0,2.32,4,34.68,34.68,0,0,0,7,2.73,54.86,54.86,0,0,1,7.33,2.6,13,13,0,0,1,4.85,3.83,10.51,10.51,0,0,1,2,6.67,10.58,10.58,0,0,1-4.6,9.29,19.65,19.65,0,0,1-11.44,3.17,28.35,28.35,0,0,1-9.32-1.55,21.07,21.07,0,0,1-7.61-4.39l2.85-5.54a20.07,20.07,0,0,0,6.63,3.91,22,22,0,0,0,7.69,1.47,11.45,11.45,0,0,0,6-1.39,4.61,4.61,0,0,0,2.28-4.23,4.82,4.82,0,0,0-2.4-4.4,32.85,32.85,0,0,0-7.29-2.93,48.4,48.4,0,0,1-7-2.48,12.43,12.43,0,0,1-4.64-3.71A10,10,0,0,1,239.5,49q0-6,4.4-9a19.07,19.07,0,0,1,11-3,27.13,27.13,0,0,1,7.69,1.1,23,23,0,0,1,6.56,3l-2.77,5.78a26,26,0,0,0-5.9-2.6" />
	<path class="cls-2"
		d="M303.42,77.54a18.64,18.64,0,0,1-10.1,3.17,11.44,11.44,0,0,1-8.3-3c-2.12-2-3.18-5.12-3.18-9.24V44.56h-6.11V38.78h6.11V27.22h7.65V38.78h13.19v5.78H289.49V67c0,2.39.44,4.1,1.3,5.13a4.81,4.81,0,0,0,3.91,1.55,13.62,13.62,0,0,0,6.68-2Z" />
	<path class="cls-1"
		d="M352.92,36.34V76.48a19.18,19.18,0,0,1-3,10.71,19.61,19.61,0,0,1-8.43,7.08A29.79,29.79,0,0,1,329,96.75a36.74,36.74,0,0,1-10.66-1.54,34,34,0,0,1-9-4.16l5.05-10a25.68,25.68,0,0,0,6.51,3.17,22.5,22.5,0,0,0,7.08,1.14,12.11,12.11,0,0,0,7.74-2.27,7.52,7.52,0,0,0,2.85-6.2V72.16Q334.12,77.95,326,78a17.69,17.69,0,0,1-16.41-10.14,24.71,24.71,0,0,1-2.4-11.12,24.42,24.42,0,0,1,2.32-10.91A17.35,17.35,0,0,1,316,38.46a17.92,17.92,0,0,1,9.61-2.61A17.42,17.42,0,0,1,333,37.36a14.36,14.36,0,0,1,5.5,4.35V36.34ZM336.07,64.51a11,11,0,0,0,2.44-7.41,11.16,11.16,0,0,0-2.44-7.49,8.69,8.69,0,0,0-12.91,0,11,11,0,0,0-2.48,7.45,10.85,10.85,0,0,0,2.48,7.41,8.18,8.18,0,0,0,6.47,2.85,8.08,8.08,0,0,0,6.44-2.85" />
	<path class="cls-1"
		d="M383.9,37.8a16.63,16.63,0,0,1,8.26-2V49c-.49,0-1.22-.08-2.2-.08a13.4,13.4,0,0,0-8.3,2.4A9.18,9.18,0,0,0,378,57.92V80.39H363.5v-44H378v7.33a16,16,0,0,1,5.9-5.87" />
	<path class="cls-1"
		d="M411.09,18.22a7.55,7.55,0,0,1,2.16,5.58,7.59,7.59,0,0,1-2.16,5.54,8,8,0,0,1-11,0,7.59,7.59,0,0,1-2.16-5.54,7.55,7.55,0,0,1,2.16-5.58,8.1,8.1,0,0,1,11,0M398.51,36.34h14.41V80.39H398.51Z" />
	<path class="cls-1"
		d="M468.45,20V80.39H454v-5.7a14.92,14.92,0,0,1-5.58,4.68A16.94,16.94,0,0,1,440.93,81a20.15,20.15,0,0,1-10.75-2.85,19.16,19.16,0,0,1-7.2-8,26.51,26.51,0,0,1-2.57-11.93,25.77,25.77,0,0,1,2.53-11.72A18.6,18.6,0,0,1,430,38.62a20.05,20.05,0,0,1,10.59-2.77,17.24,17.24,0,0,1,7.61,1.63A16.19,16.19,0,0,1,454,42.12V20ZM451.35,66.5A11.77,11.77,0,0,0,454,58.57a11.76,11.76,0,0,0-2.61-8,8.58,8.58,0,0,0-6.84-3,8.67,8.67,0,0,0-6.88,3.05A11.69,11.69,0,0,0,435,58.57a11.68,11.68,0,0,0,2.64,7.93,8.68,8.68,0,0,0,6.88,3.06,8.53,8.53,0,0,0,6.84-3.06" />
	<path class="cls-2" d="M99.58,21.8H84.23V6.46H99.58ZM106.36-.33H77.45V28.59h28.91Z" />
	<path class="cls-2" d="M99.58,98.9H84.23V83.55H99.58Zm6.78-22.13H77.45v28.92h28.91Z" />
</svg>